<svg id="Layer_1" data-name="Layer 1" xmlns="http://www.w3.org/2000/svg" xmlns:xlink="http://www.w3.org/1999/xlink" width="121.899" height="36.752" viewBox="0 0 121.899 36.752">
  <defs>
    <linearGradient id="linear-gradient" x1="0.315" y1="0.335" x2="1" y2="0.338" gradientUnits="objectBoundingBox">
      <stop offset="0" stop-color="#b600ee"/>
      <stop offset="1" stop-color="#9400ee"/>
    </linearGradient>
    <linearGradient id="linear-gradient-2" x1="0.625" y1="0.578" x2="0.092" y2="0.565" gradientUnits="objectBoundingBox">
      <stop offset="0" stop-color="#ff5b64"/>
      <stop offset="1" stop-color="#ff9300"/>
    </linearGradient>
    <linearGradient id="linear-gradient-3" x1="93.552" y1="61.769" x2="92.542" y2="61.769" gradientUnits="objectBoundingBox">
      <stop offset="0" stop-color="#ff5161"/>
      <stop offset="1" stop-color="#ff3761"/>
    </linearGradient>
  </defs>
  <path id="Path_121" data-name="Path 121" d="M49.9,19.044l4.956-12.4h4.706L51.79,26.122H48.06L40.23,6.64h4.719Z" transform="translate(12.798 2.112)" fill="#f8f8f9"/>
  <path id="Path_122" data-name="Path 122" d="M67.153,22.753a8.423,8.423,0,0,1-5.958,2.4,7.909,7.909,0,0,1-5.655-2.109A7.368,7.368,0,0,1,53.312,17.4a7.276,7.276,0,0,1,2.228-5.628,8.146,8.146,0,0,1,10.624-.224,6.459,6.459,0,0,1,2.214,5.141V18.93H57.451a2.992,2.992,0,0,0,1.318,2,4.139,4.139,0,0,0,2.452.778,4.785,4.785,0,0,0,3.546-1.489Zm-4.02-8.884a3.15,3.15,0,0,0-2.1-.725,3.783,3.783,0,0,0-2.28.751,2.926,2.926,0,0,0-1.2,2.03h6.591a2.966,2.966,0,0,0-1.015-2.056Z" transform="translate(16.957 3.082)" fill="#f8f8f9"/>
  <path id="Path_123" data-name="Path 123" d="M89.459,21.9a2.478,2.478,0,1,1,1.74.712A2.373,2.373,0,0,1,89.459,21.9Z" transform="translate(28.223 5.618)" fill="#f8f8f9"/>
  <path id="Path_124" data-name="Path 124" d="M69.928,16.812V10.05H65.75V25.037h4.178Z" transform="translate(20.916 3.197)" fill="#f8f8f9"/>
  <path id="Path_125" data-name="Path 125" d="M76.422,11.534A5.272,5.272,0,0,0,72.468,9.86c-1.318,0-3.638.857-3.638,4.6h0a2.755,2.755,0,0,1,.3-.382,3.045,3.045,0,0,1,2.188-.91c1.687,0,2.531,1.16,2.531,3.453V25.1h4.429a1.041,1.041,0,0,1-.3-.791v-8.32a6.156,6.156,0,0,0-1.555-4.455Z" transform="translate(21.896 3.136)" fill="#f8f8f9"/>
  <path id="Path_126" data-name="Path 126" d="M81.318,16.812V10.05H77.14V25.037h4.178Z" transform="translate(24.54 3.197)" fill="#f8f8f9"/>
  <path id="Path_127" data-name="Path 127" d="M87.832,11.534A5.272,5.272,0,0,0,83.878,9.86c-1.318,0-3.638.857-3.638,4.6h0a2.755,2.755,0,0,1,.3-.382,3.045,3.045,0,0,1,2.188-.91c1.687,0,2.531,1.16,2.531,3.453V25.1h4.5a1.028,1.028,0,0,1-.316-.791v-8.32a6.156,6.156,0,0,0-1.608-4.455Z" transform="translate(25.526 3.136)" fill="#f8f8f9"/>
  <path id="Path_128" data-name="Path 128" d="M8.75,4.78Z" transform="translate(2.784 1.521)" fill="#b008ff"/>
  <path id="Path_129" data-name="Path 129" d="M20.813,4.178A8.278,8.278,0,0,0,13.748,0h0L0,.079,5.958,11.2a8.027,8.027,0,0,0,.633,1.226L13.564,25.3l7.474-12.667a8.489,8.489,0,0,0-.224-8.462Z" fill="url(#linear-gradient)"/>
  <path id="Path_130" data-name="Path 130" d="M34.5,13.366c-1.437.435-5.839,1.081-10.255,2C14.82,17.383,14.03,20.388,13.384,21.35l-.171.3h0a8.331,8.331,0,0,0,14.368,8.37h0l12-20.45a8.238,8.238,0,0,1-5.075,3.8Z" transform="translate(3.922 3.044)" fill="url(#linear-gradient-2)"/>
  <path id="Path_131" data-name="Path 131" d="M22.276,3h0l-.066.079h0Z" transform="translate(7.065 0.954)" fill="#b008ff"/>
  <path id="Path_132" data-name="Path 132" d="M36.393,1.132a8.331,8.331,0,0,0-11.27,2.821h0a.237.237,0,0,0,0,.119v.092h0L13.26,24.331c.646-.962,1.463-3.954,10.861-5.984,4.416-.923,8.818-1.569,10.255-2a8.383,8.383,0,0,0,4.9-3.7.171.171,0,0,0,0-.119v-.092h0a8.317,8.317,0,0,0-2.887-11.3Z" transform="translate(4.218 0.001)" fill="url(#linear-gradient-3)"/>
  <path id="Path_133" data-name="Path 133" d="M13.171,18.51a2.517,2.517,0,0,1-.171.3Z" transform="translate(4.136 5.888)" fill="#00d9ff"/>
</svg>
