<svg xmlns="http://www.w3.org/2000/svg" width="22.817" height="13.69" viewBox="0 0 22.817 13.69">
  <path id="money-bill-solid" d="M21.676,64H1.141A1.141,1.141,0,0,0,0,65.141V76.549A1.141,1.141,0,0,0,1.141,77.69H21.676a1.141,1.141,0,0,0,1.141-1.141V65.141A1.141,1.141,0,0,0,21.676,64ZM1.711,75.979V73.7a2.282,2.282,0,0,1,2.282,2.282Zm0-7.986V65.711H3.993A2.282,2.282,0,0,1,1.711,67.993Zm9.7,6.275a3.48,3.48,0,0,1,0-6.845,3.48,3.48,0,0,1,0,6.845Zm9.7,1.711H18.824A2.282,2.282,0,0,1,21.106,73.7Zm0-7.986a2.282,2.282,0,0,1-2.282-2.282h2.282Z" transform="translate(0 -64)" fill="#4dd3be"/>
</svg>
