<svg xmlns="http://www.w3.org/2000/svg" xmlns:xlink="http://www.w3.org/1999/xlink" width="44.623" height="36.752" viewBox="0 0 44.623 36.752">
  <defs>
    <linearGradient id="linear-gradient" x1="0.315" y1="0.335" x2="1" y2="0.338" gradientUnits="objectBoundingBox">
      <stop offset="0" stop-color="#b600ee"/>
      <stop offset="1" stop-color="#9400ee"/>
    </linearGradient>
    <linearGradient id="linear-gradient-2" x1="0.625" y1="0.578" x2="0.092" y2="0.565" gradientUnits="objectBoundingBox">
      <stop offset="0" stop-color="#ff5b64"/>
      <stop offset="1" stop-color="#ff9300"/>
    </linearGradient>
    <linearGradient id="linear-gradient-3" x1="93.552" y1="61.769" x2="92.542" y2="61.769" gradientUnits="objectBoundingBox">
      <stop offset="0" stop-color="#ff5161"/>
      <stop offset="1" stop-color="#ff3761"/>
    </linearGradient>
  </defs>
  <g id="Group_61" data-name="Group 61" transform="translate(0 0)">
    <path id="Path_129" data-name="Path 129" d="M20.813,4.178A8.278,8.278,0,0,0,13.748,0h0L0,.079,5.958,11.2a8.027,8.027,0,0,0,.633,1.226L13.564,25.3l7.474-12.667a8.489,8.489,0,0,0-.224-8.462Z" fill="url(#linear-gradient)"/>
    <path id="Path_130" data-name="Path 130" d="M34.5,13.366c-1.437.435-5.839,1.081-10.255,2C14.82,17.383,14.03,20.388,13.384,21.35l-.171.3h0a8.331,8.331,0,0,0,14.368,8.37h0l12-20.45a8.238,8.238,0,0,1-5.075,3.8Z" transform="translate(3.922 3.044)" fill="url(#linear-gradient-2)"/>
    <path id="Path_132" data-name="Path 132" d="M36.393,1.132a8.331,8.331,0,0,0-11.27,2.821h0a.237.237,0,0,0,0,.119v.092h0L13.26,24.331c.646-.962,1.463-3.954,10.861-5.984,4.416-.923,8.818-1.569,10.255-2a8.383,8.383,0,0,0,4.9-3.7.171.171,0,0,0,0-.119v-.092h0a8.317,8.317,0,0,0-2.887-11.3Z" transform="translate(4.218 0.001)" fill="url(#linear-gradient-3)"/>
  </g>
</svg>
